<?xml version="1.0" encoding="UTF-8" standalone="no"?>
<!DOCTYPE svg PUBLIC "-//W3C//DTD SVG 1.1//EN" "http://www.w3.org/Graphics/SVG/1.1/DTD/svg11.dtd">
<svg version="1.1" xmlns="http://www.w3.org/2000/svg" xmlns:xlink="http://www.w3.org/1999/xlink" preserveAspectRatio="xMidYMid meet" viewBox="0 0 640 640" width="640" height="640"><defs><path d="M552.54 345.61C552.54 464.56 455.97 561.13 337.02 561.13C218.07 561.13 121.5 464.56 121.5 345.61C121.5 226.66 218.07 130.09 337.02 130.09C455.97 130.09 552.54 226.66 552.54 345.61Z" id="d59kPyd6V"></path><path d="M507.75 341.41C507.75 435.21 431.59 511.37 337.79 511.37C243.98 511.37 167.83 435.21 167.83 341.41C167.83 247.6 243.98 171.45 337.79 171.45C431.59 171.45 507.75 247.6 507.75 341.41Z" id="l2LU7Yqvt"></path><mask id="maska1nNHedGbt" x="165.83" y="169.45" width="343.92" height="343.92" maskUnits="userSpaceOnUse"><rect x="165.83" y="169.45" width="343.92" height="343.92" fill="white"></rect><use xlink:href="#l2LU7Yqvt" opacity="1" fill="black"></use></mask><path d="M350.26 345.05C350.26 351.64 344.67 356.98 337.79 356.98C330.9 356.98 325.32 351.64 325.32 345.05C325.32 338.46 330.9 333.11 337.79 333.11C344.67 333.11 350.26 338.46 350.26 345.05Z" id="c34TK2NfEj"></path><path d="M338.92 505.4L338.92 362.45" id="e2Q2D9K0jK"></path><path d="M338.92 552.03L338.92 520.28" id="a4KtViW4E"></path><path d="M355.53 617.81C346.06 607.34 340.61 598.88 339.18 592.41C337.75 585.94 337.75 579.56 339.18 573.25L339.18 567.02" id="b65O5BVL6T"></path><path d="M251.73 534.14L267.21 506.42" id="a1Bv7xRhLb"></path><path d="M235.81 597.66C232.41 584.37 231.59 574.7 233.34 568.64C235.09 562.58 238.05 557.29 242.22 552.75L245.1 547.59" id="c3P12yZUaS"></path><path d="M218.52 450.97L324.58 356.97" id="a3rOAvPPDQ"></path><path d="M180.48 482.99L204.45 462.97" id="a9KMInk2k"></path><path d="M137.95 531.53C140.54 518.06 143.92 508.96 148.08 504.23C152.25 499.49 157.18 495.96 162.88 493.64L167.69 490.2" id="i2KCFH6RWT"></path><path d="M139 412.17L169.29 402.67" id="hlu2fNLVt"></path><path d="M82.83 444.97C89.49 432.97 95.53 425.38 100.96 422.18C106.4 418.98 112.19 417.16 118.33 416.73L123.97 414.96" id="b15VZiULfW"></path><path d="M337.79 178.97L337.79 327.78" id="bh91gXJ0z"></path><path d="M337.75 135.67L337.75 166.41" id="l2k7f6dx2T"></path><path d="M320.4 75.38C329.85 85.32 335.29 93.36 336.72 99.5C338.14 105.64 338.14 111.71 336.72 117.7L336.72 123.61" id="b3v2IMbDp"></path><path d="M424.98 153.57L409.5 181.29" id="aQEznZl1Y"></path><path d="M439.86 93.41C443.27 106.7 444.09 116.37 442.34 122.43C440.59 128.49 437.63 133.78 433.46 138.31L430.58 143.48" id="c9kjqgp9v"></path><path d="M460.75 232.77L350.59 332.42" id="c1DLJMfcJo"></path><path d="M493.99 205.7L470.02 225.72" id="aRHR7fgMV"></path><path d="M533 157.16C530.42 170.63 527.04 179.73 522.87 184.46C518.71 189.19 513.77 192.72 508.07 195.05L503.26 198.49" id="bfqpeT0mH"></path><path d="M534.31 275.34L504.01 284.85" id="a5uQecH3fg"></path><path d="M588.12 243.72C581.47 255.71 575.42 263.31 569.99 266.51C564.56 269.71 558.77 271.52 552.63 271.96L546.98 273.73" id="etmaWgnNV"></path><path d="M171.46 342.57L319.84 342.93" id="f1mjXiCUy2"></path><path d="M128.16 342.47L159.91 342.54" id="afZkv6rmd"></path><path d="M67.82 359.71C77.78 350.29 85.84 344.87 91.98 343.45C98.13 342.04 104.19 342.06 110.18 343.5L116.1 343.51" id="kbSnfe1PS"></path><path d="M146.25 255.31L173.94 270.87" id="a6rjSukB7g"></path><path d="M86.13 240.29C99.43 236.92 109.1 236.12 115.16 237.89C121.21 239.65 126.5 242.62 131.02 246.8L136.18 249.7" id="g1bX4pSELr"></path><path d="M225.54 219.73L324.22 331.53" id="h1U9dLZZqx"></path><path d="M198.54 186.43L218.51 210.44" id="bNRxMRuHS"></path><path d="M150.09 147.31C163.56 149.92 172.65 153.32 177.37 157.5C182.1 161.67 185.61 166.62 187.93 172.32L191.36 177.14" id="bx2ErDvuC"></path><path d="M268.28 146.28L277.22 175.1" id="c179J1ALN2"></path><path d="M236.78 92.39C248.76 99.07 256.34 105.13 259.53 110.57C262.72 116.01 264.52 121.8 264.94 127.95L266.69 133.6" id="b1GXAx4vKw"></path><path d="M502.63 343.77L355.94 343.86" id="amMpyFYDY"></path><path d="M545.93 343.78L514.18 343.8" id="aE4Mfivww"></path><path d="M606.22 326.36C596.28 335.82 588.25 341.26 582.11 342.69C575.96 344.12 569.9 344.12 563.91 342.7L557.99 342.7" id="a32u385KH"></path><path d="M528.09 430.99L500.36 415.51" id="b5w7ArwdW"></path><path d="M588.26 445.83C574.97 449.24 565.3 450.07 559.24 448.32C553.18 446.57 547.88 443.62 543.35 439.45L538.18 436.57" id="aqxJmn4Fk"></path><path d="M445.58 462.71L351.72 356.55" id="cfDTgNYci"></path><path d="M476 500.02L455.97 476.06" id="a38f0xAMWW"></path><path d="M527.99 539.36C514.52 536.79 505.41 533.41 500.68 529.25C495.94 525.09 492.41 520.16 490.08 514.46L486.64 509.65" id="bkAtCgpCP"></path><path d="M406.38 540.38L396.86 510.09" id="a1DJcIDHiV"></path><path d="M440.39 595.46C428.39 588.82 420.79 582.78 417.59 577.34C414.39 571.91 412.57 566.13 412.14 559.98L410.36 554.34" id="gE7Umpcy7"></path><path d="M78.95 96.38C78.95 108.85 68.83 118.97 56.36 118.97C43.9 118.97 33.78 108.85 33.78 96.38C33.78 83.92 43.9 73.8 56.36 73.8C68.83 73.8 78.95 83.92 78.95 96.38Z" id="a32UAVLrAZ"></path><path d="M152.29 187.79C152.29 175.33 142.17 165.21 129.71 165.21C117.24 165.21 107.13 175.33 107.13 187.79C107.13 200.26 117.24 210.38 129.71 210.38C142.17 210.38 152.29 200.26 152.29 187.79Z" id="a7pefEyUQ"></path><path d="M152.29 126.64C152.29 114.18 142.17 104.06 129.71 104.06C117.24 104.06 107.13 114.18 107.13 126.64C107.13 139.1 117.24 149.22 129.71 149.22C142.17 149.22 152.29 139.1 152.29 126.64Z" id="c2lPaNXFlA"></path><path d="M152.29 69.12C152.29 56.65 142.17 46.53 129.71 46.53C117.24 46.53 107.13 56.65 107.13 69.12C107.13 81.58 117.24 91.7 129.71 91.7C142.17 91.7 152.29 81.58 152.29 69.12Z" id="co6mSp6Xy"></path><path d="M107.13 66.69L76.18 82.46" id="f12e6B2GWH"></path><path d="M107.99 115.76L81.18 100.15" id="c5OPXYiUgR"></path><path d="M113.73 170.67L69.97 116.57" id="cfAjHvLa2"></path><path d="M195.47 114.95L150.14 80.62" id="b35G2vvk0Y"></path><path d="M79.51 154.37C79.51 141.9 69.39 131.78 56.93 131.78C44.46 131.78 34.34 141.9 34.34 154.37C34.34 166.83 44.46 176.95 56.93 176.95C69.39 176.95 79.51 166.83 79.51 154.37Z" id="a3RAtYSsvg"></path><path d="M107.13 182.74L76.71 167.92" id="d2LCydN3w"></path><path d="M106 134.53L79.51 146.21" id="b1kfiCJFr"></path><path d="M109.15 79.47L71.36 134.56" id="iscWBzKZB"></path><path d="M239.05 127.99C239.05 115.53 228.93 105.41 216.46 105.41C204 105.41 193.88 115.53 193.88 127.99C193.88 140.45 204 150.57 216.46 150.57C228.93 150.57 239.05 140.45 239.05 127.99Z" id="aGpFsAzSH"></path><path d="M192.38 126.43L153.65 126.26" id="d4Dt0qiZNN"></path><path d="M149.12 175.15L195.47 138.81" id="f1pl4NZcON"></path><path d="M473.43 143.18L409.1 109.22" id="a6AjcRzTx"></path><path d="M537.88 214.75L508.96 172.35" id="aXmIPS5j"></path><path d="M573.37 389.71L571.64 329.76" id="c6dgP4YkCm"></path><path d="M572.14 488.1L573.56 436.9" id="e9pdKJIbOh"></path><path d="M564.52 285.22L557.07 256.81" id="ccCjXHBnC"></path><path d="M410.85 99.02C410.85 111.48 400.73 121.6 388.26 121.6C375.8 121.6 365.68 111.48 365.68 99.02C365.68 86.55 375.8 76.43 388.26 76.43C400.73 76.43 410.85 86.55 410.85 99.02Z" id="a1aES3SEiC"></path><path d="M515.72 155.46C515.72 167.92 505.6 178.04 493.13 178.04C480.67 178.04 470.55 167.92 470.55 155.46C470.55 142.99 480.67 132.87 493.13 132.87C505.6 132.87 515.72 142.99 515.72 155.46Z" id="b7FYsOY80"></path><path d="M573.77 234.25C573.77 246.71 563.65 256.83 551.19 256.83C538.73 256.83 528.61 246.71 528.61 234.25C528.61 221.78 538.73 211.66 551.19 211.66C563.65 211.66 573.77 221.78 573.77 234.25Z" id="a4ZnrWeKOU"></path><path d="M594.34 307C594.34 319.46 584.22 329.58 571.75 329.58C559.29 329.58 549.17 319.46 549.17 307C549.17 294.54 559.29 284.42 571.75 284.42C584.22 284.42 594.34 294.54 594.34 307Z" id="c2FCHliQeC"></path><path d="M595.38 413.21C595.38 425.67 585.26 435.79 572.8 435.79C560.33 435.79 550.21 425.67 550.21 413.21C550.21 400.74 560.33 390.62 572.8 390.62C585.26 390.62 595.38 400.74 595.38 413.21Z" id="e1RUHAf6wk"></path><path d="M595.01 511.59C595.01 524.06 584.89 534.18 572.42 534.18C559.96 534.18 549.84 524.06 549.84 511.59C549.84 499.13 559.96 489.01 572.42 489.01C584.89 489.01 595.01 499.13 595.01 511.59Z" id="a9eRN7iM3"></path><path d="M316.66 99.04C316.66 111.51 306.54 121.63 294.08 121.63C281.61 121.63 271.49 111.51 271.49 99.04C271.49 86.58 281.61 76.46 294.08 76.46C306.54 76.46 316.66 86.58 316.66 99.04Z" id="f3BKZ7Hdnh"></path><path d="M364.46 98.43L318.26 98.23" id="g52COWhpt"></path><path d="M270.65 103.64L239.94 120.02" id="g1dmU2aMAb"></path></defs><g><g><g><g><g><use xlink:href="#d59kPyd6V" opacity="1" fill-opacity="0" stroke="#d3ae47" stroke-width="8" stroke-opacity="1"></use></g></g><g><g mask="url(#maska1nNHedGbt)"><use xlink:href="#l2LU7Yqvt" opacity="1" fill-opacity="0" stroke="#000000" stroke-width="2" stroke-opacity="1"></use></g><g><use xlink:href="#l2LU7Yqvt" opacity="1" fill-opacity="0" stroke="#d3ae47" stroke-width="8" stroke-opacity="1"></use></g></g><g><g><use xlink:href="#c34TK2NfEj" opacity="1" fill-opacity="0" stroke="#d3ae47" stroke-width="8" stroke-opacity="1"></use></g></g><g><g><g><use xlink:href="#e2Q2D9K0jK" opacity="1" fill-opacity="0" stroke="#d3ae47" stroke-width="8" stroke-opacity="1"></use></g></g><g><g><use xlink:href="#a4KtViW4E" opacity="1" fill-opacity="0" stroke="#d3ae47" stroke-width="8" stroke-opacity="1"></use></g></g><g><g><use xlink:href="#b65O5BVL6T" opacity="1" fill-opacity="0" stroke="#d3ae47" stroke-width="8" stroke-opacity="1"></use></g></g><g><g><use xlink:href="#a1Bv7xRhLb" opacity="1" fill-opacity="0" stroke="#d3ae47" stroke-width="8" stroke-opacity="1"></use></g></g><g><g><use xlink:href="#c3P12yZUaS" opacity="1" fill-opacity="0" stroke="#d3ae47" stroke-width="8" stroke-opacity="1"></use></g></g><g><g><g><use xlink:href="#a3rOAvPPDQ" opacity="1" fill-opacity="0" stroke="#d3ae47" stroke-width="8" stroke-opacity="1"></use></g></g><g><g><use xlink:href="#a9KMInk2k" opacity="1" fill-opacity="0" stroke="#d3ae47" stroke-width="8" stroke-opacity="1"></use></g></g><g><g><use xlink:href="#i2KCFH6RWT" opacity="1" fill-opacity="0" stroke="#d3ae47" stroke-width="8" stroke-opacity="1"></use></g></g><g><g><use xlink:href="#hlu2fNLVt" opacity="1" fill-opacity="0" stroke="#d3ae47" stroke-width="8" stroke-opacity="1"></use></g></g><g><g><use xlink:href="#b15VZiULfW" opacity="1" fill-opacity="0" stroke="#d3ae47" stroke-width="8" stroke-opacity="1"></use></g></g></g></g><g><g><g><use xlink:href="#bh91gXJ0z" opacity="1" fill-opacity="0" stroke="#d3ae47" stroke-width="8" stroke-opacity="1"></use></g></g><g><g><use xlink:href="#l2k7f6dx2T" opacity="1" fill-opacity="0" stroke="#d3ae47" stroke-width="8" stroke-opacity="1"></use></g></g><g><g><use xlink:href="#b3v2IMbDp" opacity="1" fill-opacity="0" stroke="#d3ae47" stroke-width="8" stroke-opacity="1"></use></g></g><g><g><use xlink:href="#aQEznZl1Y" opacity="1" fill-opacity="0" stroke="#d3ae47" stroke-width="8" stroke-opacity="1"></use></g></g><g><g><use xlink:href="#c9kjqgp9v" opacity="1" fill-opacity="0" stroke="#d3ae47" stroke-width="8" stroke-opacity="1"></use></g></g><g><g><g><use xlink:href="#c1DLJMfcJo" opacity="1" fill-opacity="0" stroke="#d3ae47" stroke-width="8" stroke-opacity="1"></use></g></g><g><g><use xlink:href="#aRHR7fgMV" opacity="1" fill-opacity="0" stroke="#d3ae47" stroke-width="8" stroke-opacity="1"></use></g></g><g><g><use xlink:href="#bfqpeT0mH" opacity="1" fill-opacity="0" stroke="#d3ae47" stroke-width="8" stroke-opacity="1"></use></g></g><g><g><use xlink:href="#a5uQecH3fg" opacity="1" fill-opacity="0" stroke="#d3ae47" stroke-width="8" stroke-opacity="1"></use></g></g><g><g><use xlink:href="#etmaWgnNV" opacity="1" fill-opacity="0" stroke="#d3ae47" stroke-width="8" stroke-opacity="1"></use></g></g></g></g><g><g><g><use xlink:href="#f1mjXiCUy2" opacity="1" fill-opacity="0" stroke="#d3ae47" stroke-width="8" stroke-opacity="1"></use></g></g><g><g><use xlink:href="#afZkv6rmd" opacity="1" fill-opacity="0" stroke="#d3ae47" stroke-width="8" stroke-opacity="1"></use></g></g><g><g><use xlink:href="#kbSnfe1PS" opacity="1" fill-opacity="0" stroke="#d3ae47" stroke-width="8" stroke-opacity="1"></use></g></g><g><g><use xlink:href="#a6rjSukB7g" opacity="1" fill-opacity="0" stroke="#d3ae47" stroke-width="8" stroke-opacity="1"></use></g></g><g><g><use xlink:href="#g1bX4pSELr" opacity="1" fill-opacity="0" stroke="#d3ae47" stroke-width="8" stroke-opacity="1"></use></g></g><g><g><g><use xlink:href="#h1U9dLZZqx" opacity="1" fill-opacity="0" stroke="#d3ae47" stroke-width="8" stroke-opacity="1"></use></g></g><g><g><use xlink:href="#bNRxMRuHS" opacity="1" fill-opacity="0" stroke="#d3ae47" stroke-width="8" stroke-opacity="1"></use></g></g><g><g><use xlink:href="#bx2ErDvuC" opacity="1" fill-opacity="0" stroke="#d3ae47" stroke-width="8" stroke-opacity="1"></use></g></g><g><g><use xlink:href="#c179J1ALN2" opacity="1" fill-opacity="0" stroke="#d3ae47" stroke-width="8" stroke-opacity="1"></use></g></g><g><g><use xlink:href="#b1GXAx4vKw" opacity="1" fill-opacity="0" stroke="#d3ae47" stroke-width="8" stroke-opacity="1"></use></g></g></g></g><g><g><g><use xlink:href="#amMpyFYDY" opacity="1" fill-opacity="0" stroke="#d3ae47" stroke-width="8" stroke-opacity="1"></use></g></g><g><g><use xlink:href="#aE4Mfivww" opacity="1" fill-opacity="0" stroke="#d3ae47" stroke-width="8" stroke-opacity="1"></use></g></g><g><g><use xlink:href="#a32u385KH" opacity="1" fill-opacity="0" stroke="#d3ae47" stroke-width="8" stroke-opacity="1"></use></g></g><g><g><use xlink:href="#b5w7ArwdW" opacity="1" fill-opacity="0" stroke="#d3ae47" stroke-width="8" stroke-opacity="1"></use></g></g><g><g><use xlink:href="#aqxJmn4Fk" opacity="1" fill-opacity="0" stroke="#d3ae47" stroke-width="8" stroke-opacity="1"></use></g></g><g><g><g><use xlink:href="#cfDTgNYci" opacity="1" fill-opacity="0" stroke="#d3ae47" stroke-width="8" stroke-opacity="1"></use></g></g><g><g><use xlink:href="#a38f0xAMWW" opacity="1" fill-opacity="0" stroke="#d3ae47" stroke-width="8" stroke-opacity="1"></use></g></g><g><g><use xlink:href="#bkAtCgpCP" opacity="1" fill-opacity="0" stroke="#d3ae47" stroke-width="8" stroke-opacity="1"></use></g></g><g><g><use xlink:href="#a1DJcIDHiV" opacity="1" fill-opacity="0" stroke="#d3ae47" stroke-width="8" stroke-opacity="1"></use></g></g><g><g><use xlink:href="#gE7Umpcy7" opacity="1" fill-opacity="0" stroke="#d3ae47" stroke-width="8" stroke-opacity="1"></use></g></g></g></g></g><g><g><g><use xlink:href="#a32UAVLrAZ" opacity="1" fill="#326786" fill-opacity="1"></use></g><g><use xlink:href="#a7pefEyUQ" opacity="1" fill="#326786" fill-opacity="1"></use></g><g><use xlink:href="#c2lPaNXFlA" opacity="1" fill="#326786" fill-opacity="1"></use></g><g><use xlink:href="#co6mSp6Xy" opacity="1" fill="#326786" fill-opacity="1"></use></g><g><g><use xlink:href="#f12e6B2GWH" opacity="1" fill-opacity="0" stroke="#000000" stroke-width="2" stroke-opacity="1"></use></g></g><g><g><use xlink:href="#c5OPXYiUgR" opacity="1" fill-opacity="0" stroke="#000000" stroke-width="2" stroke-opacity="1"></use></g></g><g><g><use xlink:href="#cfAjHvLa2" opacity="1" fill-opacity="0" stroke="#000000" stroke-width="2" stroke-opacity="1"></use></g></g><g><g><use xlink:href="#b35G2vvk0Y" opacity="1" fill-opacity="0" stroke="#000000" stroke-width="2" stroke-opacity="1"></use></g></g><g><use xlink:href="#a3RAtYSsvg" opacity="1" fill="#326786" fill-opacity="1"></use></g><g><g><use xlink:href="#d2LCydN3w" opacity="1" fill-opacity="0" stroke="#000000" stroke-width="2" stroke-opacity="1"></use></g></g><g><g><use xlink:href="#b1kfiCJFr" opacity="1" fill-opacity="0" stroke="#000000" stroke-width="2" stroke-opacity="1"></use></g></g><g><g><use xlink:href="#iscWBzKZB" opacity="1" fill-opacity="0" stroke="#000000" stroke-width="2" stroke-opacity="1"></use></g></g><g><use xlink:href="#aGpFsAzSH" opacity="1" fill="#326786" fill-opacity="1"></use></g><g><g><use xlink:href="#d4Dt0qiZNN" opacity="1" fill-opacity="0" stroke="#000000" stroke-width="2" stroke-opacity="1"></use></g></g><g><g><use xlink:href="#f1pl4NZcON" opacity="1" fill-opacity="0" stroke="#000000" stroke-width="2" stroke-opacity="1"></use></g></g></g></g><g><g><g><g><g><g><g><use xlink:href="#a6AjcRzTx" opacity="1" fill-opacity="0" stroke="#060606" stroke-width="2" stroke-opacity="1"></use></g></g></g><g><g><use xlink:href="#aXmIPS5j" opacity="1" fill-opacity="0" stroke="#060606" stroke-width="2" stroke-opacity="1"></use></g></g><g><g><g><g><use xlink:href="#c6dgP4YkCm" opacity="1" fill-opacity="0" stroke="#060606" stroke-width="2" stroke-opacity="1"></use></g></g><g><g><use xlink:href="#e9pdKJIbOh" opacity="1" fill-opacity="0" stroke="#060606" stroke-width="2" stroke-opacity="1"></use></g></g></g><g><g><use xlink:href="#ccCjXHBnC" opacity="1" fill-opacity="0" stroke="#060606" stroke-width="2" stroke-opacity="1"></use></g></g></g></g></g><g><use xlink:href="#a1aES3SEiC" opacity="1" fill="#326786" fill-opacity="1"></use></g><g><use xlink:href="#b7FYsOY80" opacity="1" fill="#326786" fill-opacity="1"></use></g><g><use xlink:href="#a4ZnrWeKOU" opacity="1" fill="#326786" fill-opacity="1"></use></g><g><use xlink:href="#c2FCHliQeC" opacity="1" fill="#326786" fill-opacity="1"></use></g><g><use xlink:href="#e1RUHAf6wk" opacity="1" fill="#326786" fill-opacity="1"></use></g><g><use xlink:href="#a9eRN7iM3" opacity="1" fill="#326786" fill-opacity="1"></use></g></g><g><use xlink:href="#f3BKZ7Hdnh" opacity="1" fill="#326786" fill-opacity="1"></use></g><g><g><use xlink:href="#g52COWhpt" opacity="1" fill-opacity="0" stroke="#000000" stroke-width="2" stroke-opacity="1"></use></g></g><g><g><use xlink:href="#g1dmU2aMAb" opacity="1" fill-opacity="0" stroke="#000000" stroke-width="2" stroke-opacity="1"></use></g></g></g></g></g></svg>